<svg width="32" height="32" viewBox="0 0 32 32" fill="none" xmlns="http://www.w3.org/2000/svg">
  <rect width="32" height="32" rx="3" fill="#171A18"/>
  <rect x="4.5" y="4.5" width="23" height="23" stroke="#B94B3F"/>
  <path d="M9 8.5H17.4C21.2 8.5 23.2 10.1 23.2 12.7C23.2 14.4 22.2 15.7 20.3 16.3C22.8 16.8 24 18.2 24 20.3C24 23.4 21.6 25 17.3 25H9V23.2L11.1 22.7V10.8L9 10.3V8.5ZM15.1 10.7V15.4H17C18.5 15.4 19.3 14.6 19.3 13C19.3 11.5 18.5 10.7 16.9 10.7H15.1ZM15.1 17.5V22.8H17.2C19 22.8 19.9 21.9 19.9 20.2C19.9 18.4 19 17.5 17.1 17.5H15.1Z" fill="#F4F0E5"/>
</svg>
